<svg xmlns="http://www.w3.org/2000/svg" viewBox="0 0 32 32" fill="currentColor">
  <title>Skillerr</title>
  <path d="M16 6.5a9.5 9.5 0 1 1 0 19a9.5 9.5 0 1 1 0-19zM16 9.5a6.5 6.5 0 1 0 0 13a6.5 6.5 0 1 0 0-13zM14.8 3.6L17.2 3.6L17.2 7L14.8 7zM26.14 8.76L27.34 10.84L24.39 12.54L23.19 10.46zM27.34 21.16L26.14 23.24L23.19 21.54L24.39 19.46zM17.2 28.4L14.8 28.4L14.8 25L17.2 25zM5.86 23.24L4.66 21.16L7.61 19.46L8.81 21.54zM4.66 10.84L5.86 8.76L8.81 10.46L7.61 12.54zM13.7 3a2.3 2.3 0 1 1 4.6 0a2.3 2.3 0 1 1-4.6 0zM24.96 9.5a2.3 2.3 0 1 1 4.6 0a2.3 2.3 0 1 1-4.6 0zM24.96 22.5a2.3 2.3 0 1 1 4.6 0a2.3 2.3 0 1 1-4.6 0zM13.7 29a2.3 2.3 0 1 1 4.6 0a2.3 2.3 0 1 1-4.6 0zM2.44 22.5a2.3 2.3 0 1 1 4.6 0a2.3 2.3 0 1 1-4.6 0zM2.44 9.5a2.3 2.3 0 1 1 4.6 0a2.3 2.3 0 1 1-4.6 0zM13 16a3 3 0 1 1 6 0a3 3 0 1 1-6 0z"/>
</svg>
